<svg width="82" height="32" fill="none" xmlns="http://www.w3.org/2000/svg"><path d="M10.053 26C4.51 26 0 21.49 0 15.947 0 10.402 4.509 5.893 10.053 5.893v1.6c-4.663 0-8.452 3.79-8.452 8.453 0 4.664 3.79 8.453 8.452 8.453V26Z" fill="url('#a')"/><path d="M10.053 26v-1.601c4.664 0 8.453-3.79 8.453-8.453h1.6C20.107 21.491 15.599 26 10.054 26Z" fill="url('#b')"/><path d="M20.107 15.946h-1.6c0-4.663-3.79-8.452-8.454-8.452V5.893c5.545 0 10.054 4.509 10.054 10.053Z" fill="url('#c')"/><path d="M14.338 19.024c-1.068-.209-1.91-.587-3.31-1.222-.387-.17-.812-.363-1.3-.58a56.814 56.814 0 0 0-.835-.363c-2.11-.936-3.27-1.446-4.694-1.446-.997 0-1.748.27-2.165.78a1.437 1.437 0 0 0-.317 1.207l-1.57.302a3.059 3.059 0 0 1 .65-2.529c.51-.619 1.515-1.361 3.402-1.361 1.763 0 3.186.634 5.344 1.585.263.116.534.24.827.364.495.216.928.41 1.315.588 1.338.603 2.073.935 2.962 1.105l-.31 1.57Z" fill="url('#d')"/><path d="M15.9 19.179a7.537 7.537 0 0 1-1.562-.155l.309-1.57c.418.085.828.124 1.253.124.99 0 1.74-.247 2.173-.719.433-.472.448-1.044.425-1.346l1.593-.139c.085.975-.209 1.887-.835 2.568-.518.564-1.516 1.237-3.356 1.237Z" fill="url('#e')"/><path d="M10.053 26v-1.6c2.297 0 3.666-2.344 3.666-6.265 0-3.92-1.392-7.207-4.246-10.247l1.168-1.098c3.148 3.349 4.679 7.06 4.679 11.345 0 4.849-2.02 7.865-5.267 7.865Z" fill="url('#f')"/><path d="M10.053 26c-3.456 0-5.436-2.815-5.436-7.726 0-5.73 2.505-8.932 4.849-11.476l1.175 1.083c-2.73 2.97-4.423 5.738-4.423 10.393 0 5.066 2.088 6.125 3.835 6.125V26Z" fill="url('#g')"/><path d="M5.769 16.782a1.871 1.871 0 1 0 0-3.743 1.871 1.871 0 0 0 0 3.743Zm8.654 3.224a1.872 1.872 0 1 0 0-3.743 1.872 1.872 0 0 0 0 3.743Zm-4.37-11.143a1.871 1.871 0 1 0 0-3.743 1.871 1.871 0 0 0 0 3.743Z" fill="#2684FF"/><path d="m28.825 20.73-1.433 3.864h-2.645l6.77-17.168h2.978l6.77 17.168h-2.637l-1.441-3.896c-1.544.317-2.875.467-4.26.467-1.307 0-2.637-.158-4.102-.443v.008Zm7.657-1.988-3.476-9.407-3.476 9.43c1.282.207 2.351.317 3.397.317 1.1 0 2.225-.134 3.555-.34Z" fill="url('#h')"/><path d="M47.336 22.48c.522 0 1.021-.104 1.41-.183v2.17c-.397.103-.84.206-1.513.206-2.795 0-4.157-1.647-4.157-4.078v-6.977H40.96v-2.09h2.115V8.756h2.193v2.772h3.476v2.09H45.27v6.93c0 1.147.681 1.931 2.067 1.931Z" fill="url('#i')"/><path d="M54.724 24.672c-2.145 0-3.5-1.021-3.5-3.42V6.064h2.25V20.99c0 1.18.783 1.592 1.75 1.592.237 0 .395 0 .649-.024v2.012c-.182.055-.578.102-1.148.102Z" fill="url('#j')"/><path d="M76.53 24.855c-1.965 0-3.556-.444-4.546-.966v-2.376c1.124.65 3.009 1.283 4.648 1.283 1.64 0 2.613-.705 2.613-1.726 0-1.022-.76-1.568-3.238-2.17-2.899-.705-4.126-1.83-4.126-3.975 0-2.273 1.75-3.658 4.727-3.658 1.703 0 3.24.42 4.205.942v2.328c-1.568-.784-2.85-1.204-4.236-1.204-1.647 0-2.534.578-2.534 1.592 0 .91.625 1.489 3.033 2.067 2.898.704 4.363 1.773 4.363 4.054 0 2.28-1.41 3.817-4.918 3.817l.008-.008Z" fill="url('#k')"/><path d="M69.834 22.582c-.634 0-.92-.261-.92-1.1v-9.954h-2.248v2.296c-.784-1.702-2.249-2.557-4.157-2.557-3.659 0-5.488 3.112-5.488 6.794 0 3.682 1.782 6.794 5.314 6.794 2.225 0 3.523-.966 4.37-2.66.199 1.615 1.212 2.47 2.653 2.47.46 0 .776-.04.998-.103V22.55c-.261.023-.285.023-.522.023v.008Zm-3.168-3.999c0 2.899-1.805 4.181-3.817 4.181-2.328 0-3.579-1.567-3.579-4.703s1.307-4.704 3.84-4.704c1.909 0 3.556 1.283 3.556 4.181v1.045Z" fill="url('#l')"/><defs><linearGradient id="a" x1="5.607" y1="26.17" x2="4.841" y2="6.086" gradientUnits="userSpaceOnUse"><stop offset=".5" stop-color="#2684FF"/><stop offset="1" stop-color="#0052CC"/></linearGradient><linearGradient id="b" x1="20.277" y1="16.828" x2="11.376" y2="26.031" gradientUnits="userSpaceOnUse"><stop stop-color="#0E65DF"/><stop offset="1" stop-color="#0255CF"/></linearGradient><linearGradient id="c" x1="15.08" y1="5.893" x2="15.08" y2="15.946" gradientUnits="userSpaceOnUse"><stop stop-color="#2684FF"/><stop offset=".59" stop-color="#156EE8"/><stop offset="1" stop-color="#0E65DF"/></linearGradient><linearGradient id="d" x1=".1" y1="16.418" x2="14.647" y2="16.418" gradientUnits="userSpaceOnUse"><stop offset=".26" stop-color="#2684FF"/><stop offset="1" stop-color="#0E65DF"/></linearGradient><linearGradient id="e" x1="15.946" y1="18.769" x2="19.125" y2="15.39" gradientUnits="userSpaceOnUse"><stop stop-color="#0052CC"/><stop offset="1" stop-color="#0E65DF"/></linearGradient><linearGradient id="f" x1="12.396" y1="26" x2="12.396" y2="6.79" gradientUnits="userSpaceOnUse"><stop offset=".36" stop-color="#2684FF"/><stop offset="1" stop-color="#0052CC"/></linearGradient><linearGradient id="g" x1="7.625" y1="26" x2="7.625" y2="6.798" gradientUnits="userSpaceOnUse"><stop offset=".06" stop-color="#2684FF"/><stop offset=".58" stop-color="#0052CC"/><stop offset="1" stop-color="#2684FF"/></linearGradient><linearGradient id="h" x1="24.631" y1="24.26" x2="65.27" y2="42.179" gradientUnits="userSpaceOnUse"><stop stop-color="#2684FF"/><stop offset="1" stop-color="#0052CC"/></linearGradient><linearGradient id="i" x1="24.747" y1="24.893" x2="45.359" y2="44.226" gradientUnits="userSpaceOnUse"><stop stop-color="#2684FF"/><stop offset="1" stop-color="#0052CC"/></linearGradient><linearGradient id="j" x1="24.747" y1="24.102" x2="32.92" y2="37.203" gradientUnits="userSpaceOnUse"><stop stop-color="#2684FF"/><stop offset="1" stop-color="#0052CC"/></linearGradient><linearGradient id="k" x1="24.747" y1="24.894" x2="55.825" y2="45.324" gradientUnits="userSpaceOnUse"><stop stop-color="#2684FF"/><stop offset="1" stop-color="#0052CC"/></linearGradient><linearGradient id="l" x1="24.747" y1="24.894" x2="67.034" y2="41.136" gradientUnits="userSpaceOnUse"><stop stop-color="#2684FF"/><stop offset="1" stop-color="#0052CC"/></linearGradient></defs></svg>